HIERARCHY
ROOT Hips
{
	OFFSET 0.000000 0.000000 0.000000
	CHANNELS 6 Xposition Yposition Zposition Zrotation Yrotation Xrotation 
	JOINT LHipJoint
	{
		OFFSET 0.000000 0.000000 0.000000
		CHANNELS 3 Zrotation Yrotation Xrotation
		JOINT LeftUpLeg
		{
			OFFSET 1.363060 -1.794630 0.839290
			CHANNELS 3 Zrotation Yrotation Xrotation
			JOINT LeftLeg
			{
				OFFSET 2.448110 -6.726130 0.000000
				CHANNELS 3 Zrotation Yrotation Xrotation
				JOINT LeftFoot
				{
					OFFSET 2.562200 -7.039590 0.000000
					CHANNELS 3 Zrotation Yrotation Xrotation
					JOINT LeftToeBase
					{
						OFFSET 0.157640 -0.433110 2.322550
						CHANNELS 3 Zrotation Yrotation Xrotation
						End Site
						{
							OFFSET 0.000000 0.000000 0.000000
						}
					}
				}
			}
		}
	}
	JOINT RHipJoint
	{
		OFFSET 0.000000 0.000000 0.000000
		CHANNELS 3 Zrotation Yrotation Xrotation
		JOINT RightUpLeg
		{
			OFFSET -1.305520 -1.794630 0.839290
			CHANNELS 3 Zrotation Yrotation Xrotation
			JOINT RightLeg
			{
				OFFSET -2.542530 -6.985550 0.000000
				CHANNELS 3 Zrotation Yrotation Xrotation
				JOINT RightFoot
				{
					OFFSET -2.568260 -7.056230 0.000000
					CHANNELS 3 Zrotation Yrotation Xrotation
					JOINT RightToeBase
					{
						OFFSET -0.164730 -0.452590 2.363150
						CHANNELS 3 Zrotation Yrotation Xrotation
						End Site
						{
							OFFSET 0.000000 0.000000 0.000000
						}
					}
				}
			}
		}
	}
	JOINT LowerBack
	{
		OFFSET 0.000000 0.000000 0.000000
		CHANNELS 3 Zrotation Yrotation Xrotation
		JOINT Spine
		{
			OFFSET 0.028270 2.035590 -0.193380
			CHANNELS 3 Zrotation Yrotation Xrotation
			JOINT Spine1
			{
				OFFSET 0.056720 2.048850 -0.042750
				CHANNELS 3 Zrotation Yrotation Xrotation
				JOINT Neck
				{
					OFFSET 0.000000 0.000000 0.000000
					CHANNELS 3 Zrotation Yrotation Xrotation
					JOINT Neck1
					{
						OFFSET -0.054170 1.746240 0.172020
						CHANNELS 3 Zrotation Yrotation Xrotation
						JOINT Head
						{
							OFFSET 0.104070 1.761360 -0.123970
							CHANNELS 3 Zrotation Yrotation Xrotation
							End Site
							{
								OFFSET 0.000000 0.000000 0.000000
							}
						}
					}
				}
				JOINT LeftShoulder
				{
					OFFSET 0.000000 0.000000 0.000000
					CHANNELS 3 Zrotation Yrotation Xrotation
					JOINT LeftArm
					{
						OFFSET 3.362410 1.200890 -0.311210
						CHANNELS 3 Zrotation Yrotation Xrotation
						JOINT LeftForeArm
						{
							OFFSET 4.983000 -0.000000 -0.000000
							CHANNELS 3 Zrotation Yrotation Xrotation
							JOINT LeftHand
							{
								OFFSET 3.483560 -0.000000 -0.000000
								CHANNELS 3 Zrotation Yrotation Xrotation
								JOINT LeftFingerBase
								{
									OFFSET 0.000000 0.000000 0.000000
									CHANNELS 3 Zrotation Yrotation Xrotation
									JOINT LeftHandIndex1
									{
										OFFSET 0.715260 -0.000000 -0.000000
										CHANNELS 3 Zrotation Yrotation Xrotation
										End Site
										{
											OFFSET 0.000000 0.000000 0.000000
										}
									}
								}
								JOINT LThumb
								{
									OFFSET 0.000000 0.000000 0.000000
									CHANNELS 3 Zrotation Yrotation Xrotation
									End Site
									{
										OFFSET 0.000000 0.000000 0.000000
									}
								}
							}
						}
					}
				}
				JOINT RightShoulder
				{
					OFFSET 0.000000 0.000000 0.000000
					CHANNELS 3 Zrotation Yrotation Xrotation
					JOINT RightArm
					{
						OFFSET -3.136600 1.374050 -0.404650
						CHANNELS 3 Zrotation Yrotation Xrotation
						JOINT RightForeArm
						{
							OFFSET -5.241900 -0.000000 -0.000000
							CHANNELS 3 Zrotation Yrotation Xrotation
							JOINT RightHand
							{
								OFFSET -3.444170 -0.000000 -0.000000
								CHANNELS 3 Zrotation Yrotation Xrotation
								JOINT RightFingerBase
								{
									OFFSET 0.000000 0.000000 0.000000
									CHANNELS 3 Zrotation Yrotation Xrotation
									JOINT RightHandIndex1
									{
										OFFSET -0.622530 -0.000000 -0.000000
										CHANNELS 3 Zrotation Yrotation Xrotation
										End Site
										{
											OFFSET 0.000000 0.000000 0.000000
										}
									}
								}
								JOINT RThumb
								{
									OFFSET 0.000000 0.000000 0.000000
									CHANNELS 3 Zrotation Yrotation Xrotation
									End Site
									{
										OFFSET 0.000000 0.000000 0.000000
									}
								}
							}
						}
					}
				}
			}
		}
	}
}
MOTION
Frames: 6
Frame Time: 0.008333
0.446462 17.312905 25.466940 -177.036599 1.092447 -171.731377 6.660355 0.113701 -1.343385 -19.833693 -14.334291 -29.465114 1.104758 12.320158 29.969357 -0.185480 14.338888 8.158527 0.070300 -1.710600 -4.706600 -11.292862 -2.729808 -4.462055 36.293624 -2.769277 10.834739 -6.584816 -14.207942 52.061727 -0.812044 -20.026275 15.483848 -0.998800 6.359900 -17.832400 3.043258 6.842224 -0.011780 -1.284309 8.502039 -3.829219 -5.333878 4.642583 8.437716 -2.535232 -7.129368 -22.609508 7.655008 -14.848159 14.716058 -0.293100 -5.449200 27.470400 9.786311 4.660262 -1.373734 -61.301731 29.822401 70.859126 132.379831 -53.638006 -92.556673 1.639222 -0.967673 17.416549 13.769258 2.875692 0.705300 -7.125000 0.000000 0.000000 -11.930300 33.222400 3.509100 -11.641488 0.368319 0.528864 88.833604 -16.625697 56.291341 -122.566851 52.747858 -79.766921 0.188392 -1.400068 5.016272 -10.878981 -1.467106 0.012000 7.125000 0.000000 0.000000 12.055100 -29.926000 4.524100 
0.432365 17.193461 25.059970 -177.501849 0.851404 -172.299863 6.554671 0.178154 -1.333650 -21.053457 -13.501257 -28.280553 1.527724 12.896131 32.012840 -0.527245 14.628787 4.530649 0.131200 -2.334400 -6.430800 -11.189997 -2.765286 -4.317163 35.233116 -3.251552 9.327247 -7.711105 -15.040858 56.184101 -0.652722 -20.594697 14.183858 -0.885700 5.999000 -16.781700 2.408915 6.149795 0.307794 -1.082204 7.576259 -3.914619 -4.580072 4.113545 7.570634 -3.205916 -6.215052 -21.020298 7.786184 -13.221783 14.813991 0.246600 -5.212500 26.628100 9.941047 4.555638 -1.338329 -63.122002 30.981439 70.541551 132.099260 -53.823647 -92.218256 1.625900 -0.951445 17.754915 13.701831 2.803329 0.681800 -7.125000 0.000000 0.000000 -11.958000 33.123800 3.546600 -11.531130 0.381452 0.544748 88.031988 -18.574207 56.973017 -121.021590 53.272248 -78.176444 0.163050 -1.433700 6.168813 -11.500684 -1.941315 0.104800 7.125000 0.000000 0.000000 11.620500 -30.376000 4.227000 
0.422465 17.114370 24.656013 -177.848989 0.420882 -172.654214 6.536856 0.224926 -1.373075 -21.869084 -13.453816 -27.322065 1.954291 13.492004 34.036815 -0.764429 15.147576 1.640550 0.228200 -3.074900 -8.487300 -11.070106 -2.757044 -4.228757 34.356366 -3.638094 7.358575 -8.825864 -15.811276 60.106046 -0.558985 -20.718476 13.262603 -0.921600 6.116200 -17.122000 2.083633 5.645272 0.830425 -1.038620 6.975503 -3.804468 -4.582508 3.821553 8.070165 -3.035355 -6.230765 -22.232178 7.785447 -13.080569 14.652705 0.162300 -5.037800 27.096600 9.938788 4.523076 -1.274532 -64.859676 29.093310 69.714673 130.572470 -54.292980 -91.002872 1.599225 -0.913982 17.515929 13.837099 2.874603 0.703000 -7.125000 0.000000 0.000000 -11.826600 33.181300 3.489400 -11.604530 0.405054 0.564926 88.988264 -18.639927 55.795776 -118.839085 54.012963 -75.722663 0.195337 -1.543688 6.356872 -11.884177 -2.309194 0.164700 7.125000 0.000000 0.000000 11.313000 -30.642100 4.037600 
0.412458 17.011713 24.256253 -178.338949 0.099717 -173.038442 6.494389 0.274995 -1.388132 -22.882832 -13.170466 -26.289834 2.365708 13.999984 35.876853 -0.957694 15.943376 -0.482988 0.157200 -2.554600 -7.041100 -10.957112 -2.754811 -4.125222 33.281646 -3.976637 5.568396 -9.976392 -16.471368 63.962626 -0.452389 -20.775618 12.246519 -0.916800 6.100900 -17.077400 1.496222 5.124404 1.229781 -0.954393 6.319000 -3.777070 -4.270148 3.461543 7.995185 -3.209172 -5.936356 -22.133944 7.881038 -12.477000 14.616996 0.353800 -4.890700 26.926000 9.988965 4.466147 -1.219321 -66.526887 28.205114 69.249802 129.273240 -54.717003 -89.900675 1.583678 -0.879939 17.495192 14.015162 2.870840 0.708400 -7.125000 0.000000 0.000000 -11.659400 33.157100 3.445300 -11.616678 0.434833 0.607123 89.393426 -19.581830 55.044361 -116.839252 54.683519 -73.521121 0.209342 -1.633589 6.874015 -12.374686 -2.773357 0.256800 7.125000 0.000000 0.000000 10.942200 -31.028100 3.797700 
0.404818 16.914436 23.860797 -178.949354 -0.176414 -173.358085 6.454438 0.321328 -1.407874 -23.971243 -12.914575 -25.256618 2.759332 14.455439 37.577202 -1.130635 16.739055 -2.694783 0.183600 -2.759800 -7.610700 -10.846762 -2.742155 -4.022676 32.087790 -4.162945 3.621554 -11.154752 -17.058166 67.763064 -0.361321 -20.616640 11.262882 -0.912600 6.087100 -17.037400 0.712417 4.574461 1.617481 -0.860896 5.620138 -3.733275 -3.808682 3.060510 8.037007 -3.478328 -5.656850 -22.217082 7.994009 -11.779796 14.550990 0.588900 -4.715700 26.806900 10.044277 4.413822 -1.149663 -68.532247 27.023407 68.578683 127.618030 -55.232260 -88.478986 1.565433 -0.830730 17.395750 14.275412 2.911622 0.726300 -7.125000 0.000000 0.000000 -11.425000 33.169200 3.370100 -11.634291 0.451719 0.658233 89.735432 -20.371952 54.115209 -114.586143 55.426884 -71.072902 0.223119 -1.728955 7.314537 -12.878601 -3.256307 0.359500 7.125000 0.000000 0.000000 10.560300 -31.429200 3.557600 
0.400836 16.823616 23.470721 -179.693796 -0.365788 -173.627461 6.422141 0.370859 -1.433408 -25.180229 -12.560865 -24.179686 3.102621 14.817669 39.007557 -1.266139 17.475277 -4.529030 0.213000 -2.971400 -8.199300 -10.729233 -2.715562 -3.915230 30.756315 -4.154306 1.506575 -12.372115 -17.582219 71.556107 -0.279673 -20.228560 10.224878 -0.914500 6.093300 -17.055500 -0.250944 4.088982 2.024190 -0.796533 5.005390 -3.679656 -3.366282 2.691648 8.148253 -3.670274 -5.459953 -22.439935 8.110763 -11.208663 14.454713 0.778100 -4.546200 26.696000 10.089606 4.362676 -1.080785 -70.494736 25.459872 67.975542 125.620027 -55.804633 -86.754470 1.545280 -0.770656 17.205508 14.596421 3.004576 0.758500 -7.125000 0.000000 0.000000 -11.143900 33.229100 3.268000 -11.669018 0.471558 0.729886 90.293821 -21.117321 52.792978 -112.130711 56.232741 -68.414814 0.245764 -1.838888 7.641988 -13.404719 -3.806540 0.483900 7.125000 0.000000 0.000000 10.157100 -31.885900 3.304600 
